<svg width="422" height="351" viewBox="0 0 422 351" fill="none" xmlns="http://www.w3.org/2000/svg">
<mask id="mask0_2_340" style="mask-type:luminance" maskUnits="userSpaceOnUse" x="0" y="0" width="422" height="351">
<path d="M421.08 0.05896H0.919922V350.622H421.08V0.05896Z" fill="white"/>
</mask>
<g mask="url(#mask0_2_340)">
<mask id="mask1_2_340" style="mask-type:luminance" maskUnits="userSpaceOnUse" x="0" y="0" width="422" height="351">
<path d="M421.08 0.05896H0.919922V350.622H421.08V0.05896Z" fill="white"/>
</mask>
<g mask="url(#mask1_2_340)">
<path d="M343.59 214.438L341.17 213.848C338.581 213.304 336.056 212.486 333.64 211.408L333.32 211.258C330.95 210.108 327.99 208.678 327.32 203.688C327.319 203.363 327.201 203.049 326.988 202.803C326.775 202.557 326.482 202.396 326.16 202.348C304.09 201.288 286.69 189.038 287.36 175.038C288.03 161.038 306.55 150.508 328.6 151.558C350.65 152.608 368.06 164.888 367.38 178.888C366.95 187.828 359.03 195.888 346.7 199.808C346.08 200.024 345.449 200.207 344.81 200.358C341.74 201.168 336.01 202.678 334.57 205.668C333.86 207.138 335 209.038 336.44 210.078C337.206 210.597 338.016 211.049 338.86 211.428C339.799 211.86 340.699 212.372 341.55 212.958L343.59 214.438ZM325.59 152.438C305.44 152.438 289.05 162.208 288.43 175.028C287.78 188.478 304.76 200.268 326.27 201.308C326.83 201.358 327.352 201.61 327.74 202.016C328.129 202.423 328.356 202.957 328.38 203.518C328.94 207.968 331.52 209.208 333.79 210.308L334.11 210.458C335.19 210.981 336.31 211.415 337.46 211.758C336.924 211.49 336.41 211.183 335.92 210.838C334.12 209.528 332.79 207.168 333.74 205.178C335.38 201.778 341.4 200.178 344.63 199.338C345.45 199.118 346.1 198.948 346.43 198.818C358.43 194.968 366.04 187.308 366.43 178.818C367.08 165.368 350.11 153.578 328.6 152.538C327.58 152.508 326.56 152.488 325.56 152.488L325.59 152.438Z" fill="#077997"/>
<path d="M329.38 189.868L326.54 191.938C326.521 191.96 326.497 191.977 326.47 191.988L323.72 189.688C315.15 182.238 305.41 174.048 313.07 167.358C318.38 162.708 324.54 167.038 327.65 169.848C330.94 167.248 337.85 159.848 343.65 168.848C348.53 176.318 338.41 182.998 329.38 189.868Z" fill="#077997"/>
<g opacity="0.5">
<mask id="mask2_2_340" style="mask-type:luminance" maskUnits="userSpaceOnUse" x="312" y="170" width="3" height="3">
<path d="M314.345 170.218H312.545V172.017H314.345V170.218Z" fill="white"/>
</mask>
<g mask="url(#mask2_2_340)">
<path d="M313.49 170.218C313.724 170.23 313.945 170.333 314.105 170.505C314.264 170.677 314.351 170.905 314.345 171.139C314.339 171.374 314.241 171.597 314.073 171.761C313.905 171.925 313.68 172.017 313.445 172.017C313.21 172.017 312.985 171.925 312.817 171.761C312.648 171.597 312.551 171.374 312.545 171.139C312.539 170.905 312.625 170.677 312.785 170.505C312.945 170.333 313.165 170.23 313.4 170.218H313.49Z" fill="white"/>
</g>
</g>
<g opacity="0.5">
<mask id="mask3_2_340" style="mask-type:luminance" maskUnits="userSpaceOnUse" x="313" y="172" width="4" height="9">
<path d="M316.86 172.968H313.006V180.338H316.86V172.968Z" fill="white"/>
</mask>
<g mask="url(#mask3_2_340)">
<path d="M316.86 180.338C314.49 178.798 316.86 173.418 313.86 172.968C311.72 173.868 313.93 178.418 316.86 180.338Z" fill="white"/>
</g>
</g>
<path d="M421.08 297.168H0.919922V312.728H421.08V297.168Z" fill="#077997"/>
<g opacity="0.7">
<mask id="mask4_2_340" style="mask-type:luminance" maskUnits="userSpaceOnUse" x="0" y="297" width="422" height="16">
<path d="M421.08 297.168H0.919922V312.728H421.08V297.168Z" fill="white"/>
</mask>
<g mask="url(#mask4_2_340)">
<path d="M421.08 297.168H0.919922V312.728H421.08V297.168Z" fill="white"/>
</g>
</g>
<path d="M23.5801 297.168H22.5801V313.478H23.5801V297.168Z" fill="white"/>
<path d="M117.56 297.168H116.56V313.478H117.56V297.168Z" fill="white"/>
<path d="M211.54 297.168H210.54V313.478H211.54V297.168Z" fill="white"/>
<path d="M305.52 297.168H304.52V313.478H305.52V297.168Z" fill="white"/>
<path d="M399.5 297.168H398.5V313.478H399.5V297.168Z" fill="white"/>
<path d="M296.06 37.0079C278.06 18.0079 255.39 11.5379 238.8 18.6279C236.414 19.6518 233.779 19.9455 231.227 19.4721C228.674 18.9986 226.319 17.7792 224.46 15.9679C204.37 -3.42207 171.83 -5.72207 158.33 12.5779C156.82 14.6274 155.524 16.8254 154.46 19.1379C152.73 22.9422 149.955 26.1774 146.46 28.4679C144.083 30.035 142.004 32.0125 140.32 34.3079C136.04 40.1179 134.18 47.7079 134.51 55.8479C134.578 57.0163 134.296 58.1784 133.699 59.1852C133.102 60.1919 132.218 60.9973 131.16 61.4979C127.466 63.1661 124.271 65.7683 121.89 69.0479C110.96 83.8679 115.78 110.268 132.67 128.048C147.67 143.868 167.25 147.488 179.06 137.608C179.563 137.194 180.194 136.968 180.845 136.968C181.496 136.968 182.127 137.194 182.63 137.608C191.13 144.428 201.01 144.478 206.15 137.078C206.359 136.774 206.626 136.514 206.935 136.313C207.245 136.112 207.591 135.974 207.954 135.907C208.317 135.84 208.69 135.845 209.051 135.922C209.411 135.999 209.754 136.146 210.058 136.355C210.153 136.42 210.244 136.491 210.33 136.568C219.09 144.408 229.69 144.838 235.08 137.078C236.042 135.669 236.784 134.121 237.28 132.488C237.382 132.139 237.552 131.813 237.78 131.53C238.008 131.246 238.29 131.011 238.609 130.836C238.928 130.661 239.279 130.551 239.64 130.512C240.002 130.473 240.368 130.506 240.717 130.608C240.768 130.623 240.817 130.64 240.87 130.658C246.61 132.708 252.23 131.818 256.06 127.788C256.467 127.36 257.004 127.077 257.587 126.983C258.171 126.889 258.769 126.989 259.29 127.268C278.95 137.758 299.66 135.738 311.19 120.108C326.61 99.1879 319.82 62.0079 296.06 37.0079Z" fill="#077997"/>
<g opacity="0.5">
<mask id="mask5_2_340" style="mask-type:luminance" maskUnits="userSpaceOnUse" x="116" y="0" width="204" height="144">
<path d="M319.453 0.05896H116.037V143.097H319.453V0.05896Z" fill="white"/>
</mask>
<g mask="url(#mask5_2_340)">
<path d="M296.06 37.0079C278.06 18.0079 255.39 11.5379 238.8 18.6279C236.415 19.6518 233.779 19.9455 231.227 19.4721C228.675 18.9986 226.32 17.7792 224.46 15.9679C204.37 -3.42207 171.83 -5.72207 158.33 12.5779C156.821 14.6274 155.524 16.8254 154.46 19.1379C152.73 22.9422 149.956 26.1774 146.46 28.4679C144.083 30.035 142.004 32.0125 140.32 34.3079C136.04 40.1179 134.18 47.7079 134.51 55.8479C134.579 57.0163 134.296 58.1784 133.699 59.1852C133.102 60.1919 132.218 60.9973 131.16 61.4979C127.467 63.1661 124.272 65.7683 121.89 69.0479C110.96 83.8679 115.78 110.268 132.67 128.048C147.67 143.868 167.25 147.488 179.06 137.608C179.563 137.194 180.194 136.968 180.845 136.968C181.496 136.968 182.127 137.194 182.63 137.608C191.13 144.428 201.01 144.478 206.15 137.078C206.359 136.774 206.626 136.514 206.936 136.313C207.246 136.112 207.592 135.974 207.955 135.907C208.317 135.84 208.69 135.845 209.051 135.922C209.412 135.999 209.754 136.146 210.058 136.355C210.154 136.42 210.244 136.491 210.33 136.568C219.09 144.408 229.69 144.838 235.08 137.078C236.043 135.669 236.784 134.121 237.28 132.488C237.383 132.139 237.553 131.813 237.781 131.53C238.009 131.246 238.29 131.011 238.609 130.836C238.929 130.661 239.279 130.551 239.641 130.512C240.002 130.473 240.368 130.506 240.717 130.608C240.768 130.623 240.817 130.64 240.87 130.658C246.61 132.708 252.23 131.818 256.06 127.788C256.468 127.36 257.004 127.077 257.588 126.983C258.171 126.889 258.769 126.989 259.29 127.268C278.95 137.758 299.66 135.738 311.19 120.108C326.61 99.1879 319.82 62.0079 296.06 37.0079Z" fill="white"/>
</g>
</g>
<path d="M172.26 146.238L188.34 161.178C187.05 182.248 186 230.778 186 230.778L180.28 264.708L230.68 265.168C230.68 265.168 228.39 236.518 228.39 234.958C228.39 233.398 218.65 178.508 218.65 178.508L215.21 147.768L241.21 139.838L245.96 126.138L265.06 115.328L274.39 100.998L270.79 100.118L260.48 113.359L248.48 115.969L253.63 103.779H247.86L233.54 132.079L215.06 135.809L217.47 96.139C199.72 101.709 198 91.559 198 91.559C198 91.559 191.91 144.949 189.76 151.029L180.25 146.239L169.96 129.959H165.38L172.26 146.238Z" fill="#077997"/>
<g opacity="0.7">
<mask id="mask6_2_340" style="mask-type:luminance" maskUnits="userSpaceOnUse" x="165" y="91" width="110" height="175">
<path d="M274.39 91.558H165.38V265.168H274.39V91.558Z" fill="white"/>
</mask>
<g mask="url(#mask6_2_340)">
<path d="M172.26 146.238L188.34 161.178C187.05 182.248 186 230.778 186 230.778L180.28 264.708L230.68 265.168C230.68 265.168 228.39 236.518 228.39 234.958C228.39 233.398 218.65 178.508 218.65 178.508L215.21 147.768L241.21 139.838L245.96 126.138L265.06 115.328L274.39 100.998L270.79 100.118L260.48 113.359L248.48 115.969L253.63 103.779H247.86L233.54 132.079L215.06 135.809L217.47 96.139C199.72 101.709 198 91.559 198 91.559C198 91.559 191.91 144.949 189.76 151.029L180.25 146.239L169.96 129.959H165.38L172.26 146.238Z" fill="white"/>
</g>
</g>
<path d="M180.18 246.998C179.26 245.708 178.72 244.918 178.72 244.918C178.72 244.918 190.64 244.748 198.77 247.848C206.9 250.948 221.06 263.898 230.44 260.778C234.379 259.52 238.211 257.948 241.9 256.078C243.913 255 246.006 254.077 248.16 253.318C250.099 252.696 252.072 252.185 254.07 251.788C254.07 251.788 257.67 253.298 249.49 262.878C241.31 272.458 233.49 276.948 223.73 275.618C218.45 274.898 204.35 270.368 196.42 264.848C193.01 262.478 188.42 257.778 185.24 253.948C185.82 253.838 187.24 254.598 188.92 253.478C187.848 253.508 186.782 253.314 185.79 252.908C184.798 252.501 183.902 251.892 183.16 251.118C183.6 251.304 184.084 251.359 184.554 251.276C185.025 251.192 185.461 250.974 185.81 250.648C184.67 250.461 183.582 250.041 182.613 249.412C181.644 248.784 180.815 247.962 180.18 246.998Z" fill="#077997"/>
<g opacity="0.1">
<mask id="mask7_2_340" style="mask-type:luminance" maskUnits="userSpaceOnUse" x="192" y="261" width="48" height="15">
<path d="M239.608 261.948H192.85V275.901H239.608V261.948Z" fill="white"/>
</mask>
<g mask="url(#mask7_2_340)">
<path d="M210.93 265.078L208.26 266.918C209.045 267.315 209.92 267.498 210.798 267.449C211.676 267.4 212.525 267.12 213.26 266.638L211.68 269.178L235.68 267.998C236.442 267.901 237.216 267.983 237.94 268.238C238.553 268.591 239.038 269.131 239.324 269.778C239.61 270.425 239.682 271.147 239.53 271.838L239.47 272.078C234.859 275.189 229.254 276.469 223.75 275.668C218.47 274.948 204.37 270.418 196.44 264.898C195.174 264.002 193.975 263.016 192.85 261.948C195.161 262.183 197.429 262.735 199.59 263.588C203.24 264.898 207.24 266.328 210.93 265.078Z" fill="black"/>
</g>
</g>
<path d="M233.97 277.648L229.66 301.718C229.482 302.726 228.971 303.644 228.21 304.328L227.21 305.268C225.696 306.63 224.75 308.511 224.56 310.538L221.83 339.408C221.721 340.556 221.999 341.707 222.62 342.678L225.43 347.058C225.538 347.223 225.687 347.358 225.862 347.449C226.037 347.54 226.233 347.584 226.43 347.578H235.56C235.769 347.576 235.974 347.516 236.151 347.405C236.329 347.294 236.472 347.137 236.566 346.95C236.66 346.763 236.701 346.554 236.684 346.346C236.667 346.137 236.593 345.937 236.47 345.768C234.666 343.196 232.359 341.015 229.69 339.358C224.82 336.618 251.76 295.078 251.76 295.078C251.76 295.078 243.12 262.078 233.97 277.648Z" fill="#077997"/>
<g opacity="0.1">
<mask id="mask8_2_340" style="mask-type:luminance" maskUnits="userSpaceOnUse" x="221" y="273" width="31" height="75">
<path d="M251.76 273.474H221.807V347.579H251.76V273.474Z" fill="white"/>
</mask>
<g mask="url(#mask8_2_340)">
<path d="M233.97 277.648L229.66 301.718C229.482 302.726 228.972 303.644 228.21 304.328L227.21 305.268C225.697 306.63 224.751 308.511 224.56 310.538L221.83 339.408C221.721 340.556 221.999 341.707 222.62 342.678L225.43 347.058C225.538 347.223 225.687 347.358 225.862 347.449C226.037 347.54 226.233 347.584 226.43 347.578H235.56C235.769 347.576 235.974 347.516 236.152 347.405C236.329 347.294 236.473 347.137 236.567 346.95C236.661 346.763 236.701 346.554 236.684 346.346C236.667 346.137 236.593 345.937 236.47 345.768C234.666 343.196 232.36 341.015 229.69 339.358C224.82 336.618 251.76 295.078 251.76 295.078C251.76 295.078 243.12 262.078 233.97 277.648Z" fill="black"/>
</g>
</g>
<path d="M355.15 277.959L360.93 292.859C361.324 293.882 361.586 294.95 361.71 296.039L362.86 306.249C363.195 309.245 364.256 312.115 365.95 314.609C369.2 319.399 375.38 332.079 377.28 336.009C377.656 336.787 378.203 337.471 378.88 338.009L382.88 341.229C383.49 341.716 383.995 342.321 384.365 343.009C384.734 343.696 384.961 344.452 385.03 345.229C385.17 346.679 385.2 348.229 384.7 348.229H379.64C378.787 348.23 377.944 348.044 377.17 347.685C376.396 347.326 375.71 346.801 375.16 346.149C372.64 343.149 368.16 338.049 367.06 337.729C365.76 337.349 351.98 321.869 345.93 315.169C344.527 313.609 343.751 311.586 343.75 309.489C343.75 308.922 343.618 308.362 343.362 307.856C343.107 307.35 342.736 306.91 342.279 306.574C341.823 306.237 341.294 306.012 340.735 305.918C340.175 305.823 339.602 305.861 339.06 306.029C335.06 307.249 326.89 308.269 324.44 308.549C324.44 308.549 341.91 289.549 341.44 277.209C340.97 264.869 354.78 269.839 355.11 273.009C355.308 274.652 355.322 276.313 355.15 277.959Z" fill="#077997"/>
<g opacity="0.1">
<mask id="mask9_2_340" style="mask-type:luminance" maskUnits="userSpaceOnUse" x="324" y="269" width="62" height="80">
<path d="M385.119 269.288H324.44V348.228H385.119V269.288Z" fill="white"/>
</mask>
<g mask="url(#mask9_2_340)">
<path d="M355.15 277.959L360.93 292.859C361.324 293.882 361.586 294.95 361.71 296.039L362.86 306.249C363.195 309.245 364.256 312.115 365.95 314.609C369.2 319.399 375.38 332.079 377.28 336.009C377.656 336.787 378.203 337.471 378.88 338.009L382.88 341.229C383.49 341.716 383.995 342.321 384.365 343.009C384.734 343.696 384.961 344.452 385.03 345.229C385.17 346.679 385.2 348.229 384.7 348.229H379.64C378.787 348.23 377.944 348.044 377.17 347.685C376.396 347.326 375.71 346.801 375.16 346.149C372.64 343.149 368.16 338.049 367.06 337.729C365.76 337.349 351.98 321.869 345.93 315.169C344.527 313.609 343.751 311.586 343.75 309.489C343.75 308.922 343.618 308.362 343.362 307.856C343.107 307.35 342.736 306.91 342.279 306.574C341.823 306.237 341.294 306.012 340.735 305.918C340.175 305.823 339.602 305.861 339.06 306.029C335.06 307.249 326.89 308.269 324.44 308.549C324.44 308.549 341.91 289.549 341.44 277.209C340.97 264.869 354.78 269.839 355.11 273.009C355.308 274.652 355.322 276.313 355.15 277.959Z" fill="black"/>
</g>
</g>
<path d="M247.06 253.759H247.18C249.1 253.149 251.45 252.529 254.18 251.919C272.79 247.629 307.38 243.359 323.79 243.809C324.6 243.809 325.36 243.869 326.07 243.919H326.14C327.344 243.983 328.543 244.12 329.73 244.329C330.46 244.444 331.173 244.652 331.85 244.949C332.108 245.056 332.345 245.209 332.55 245.399C340.55 253.179 353.09 258.449 354.67 271.959C354.7 272.154 354.72 272.351 354.73 272.549C354.831 273.619 354.861 274.695 354.82 275.769V276.359C354.811 276.804 354.778 277.248 354.72 277.689C354.725 277.769 354.725 277.849 354.72 277.929C354.17 283.229 352.17 289.599 348.18 297.449C347.83 298.139 347.46 298.839 347.07 299.559C345.604 302.012 343.388 303.93 340.75 305.029L340.28 305.249C339.075 305.781 337.835 306.232 336.57 306.599H336.52C333.057 307.552 329.505 308.149 325.92 308.379L325.05 308.439C324.158 308.494 323.263 308.494 322.37 308.439C319.93 308.249 317.43 307.809 315.19 308.169C314.995 308.198 314.801 308.238 314.61 308.289L314.33 308.349C313.391 308.586 312.516 309.03 311.77 309.649C311.612 309.765 311.465 309.896 311.33 310.039C310.795 310.575 310.334 311.18 309.96 311.839C309.319 312.967 308.908 314.211 308.75 315.499C308.65 316.209 308.54 316.939 308.43 317.699C307.01 327.249 305.24 340.149 313.02 342.419C316.02 343.299 315.39 346.319 315.64 347.149C317 351.679 306.64 350.479 306.64 350.479C304.1 349.609 301.08 348.429 298.71 349.129C297.71 349.409 296.42 347.779 296.57 346.759C298.22 334.929 295.38 323.649 294.43 307.529H293.92L275.06 306.549H273.94C273.74 307.099 269.89 321.399 273.24 329.499C275.85 335.799 281.73 339.849 288.43 341.119C291.06 341.619 290.97 344.119 291.74 346.919C292.57 349.849 287.27 348.849 284.23 348.749C284.23 348.749 266.93 343.309 261.45 334.029C259.7 331.029 263.38 327.919 261.96 324.769C258.96 318.059 253.78 310.769 249.59 304.709C248.923 303.749 248.223 302.809 247.49 301.889C244.9 298.579 242.03 295.449 239.54 292.109C239.36 292.999 239.15 293.879 239.06 294.569C238.062 293.035 237.518 291.249 237.49 289.419L235.49 293.309C234.9 289.209 234.31 285.129 233.71 281.039C233.66 280.719 233.62 280.409 233.59 280.099C233.562 279.766 233.562 279.432 233.59 279.099C233.377 277.736 233.283 276.358 233.31 274.979C233.342 272.634 233.699 270.306 234.37 268.059C235.717 263.35 238.444 259.153 242.2 256.009L247.06 253.759Z" fill="#077997"/>
<g opacity="0.1">
<mask id="mask10_2_340" style="mask-type:luminance" maskUnits="userSpaceOnUse" x="314" y="290" width="34" height="19">
<path d="M347.925 290.551H314.24V308.495H347.925V290.551Z" fill="white"/>
</mask>
<g mask="url(#mask10_2_340)">
<path d="M314.78 307.659C314.62 307.898 314.439 308.122 314.24 308.329C317.5 307.469 321.41 308.689 324.97 308.469C329.55 308.189 334.83 306.069 339.54 303.969C339.54 303.969 344.63 300.399 346.35 298.269C346.844 297.64 347.217 296.924 347.45 296.159C348.17 293.909 348.34 292.559 345.99 291.159C342.65 289.159 331.76 292.639 328.36 293.899C323.36 295.739 318.73 299.119 316.53 303.949C316.05 305.232 315.465 306.473 314.78 307.659Z" fill="black"/>
</g>
</g>
<g opacity="0.1">
<mask id="mask11_2_340" style="mask-type:luminance" maskUnits="userSpaceOnUse" x="311" y="309" width="1" height="2">
<path d="M311.68 309.628H311.24V310.018H311.68V309.628Z" fill="white"/>
</mask>
<g mask="url(#mask11_2_340)">
<path d="M311.24 310.018C311.374 309.875 311.521 309.744 311.68 309.628H311.35C311.287 309.749 311.249 309.882 311.24 310.018Z" fill="black"/>
</g>
</g>
<g opacity="0.1">
<mask id="mask12_2_340" style="mask-type:luminance" maskUnits="userSpaceOnUse" x="270" y="292" width="25" height="16">
<path d="M294.258 292.638H270.45V307.488H294.258V292.638Z" fill="white"/>
</mask>
<g mask="url(#mask12_2_340)">
<path d="M270.45 298.018C272.07 299.688 273.78 303.218 273.84 305.248C273.84 306.248 273.84 306.368 273.91 306.508L275.56 306.568L294.24 307.488C294.37 305.432 293.795 303.393 292.61 301.708L286.81 292.898C286.86 294.678 286.9 296.448 286.94 298.228C285.516 296.179 283.858 294.303 282 292.638C281.94 294.238 281.89 295.838 281.83 297.428L278.83 295.428C278.9 296.568 278.97 297.708 279.05 298.848C278.76 298.484 278.368 298.216 277.924 298.078C277.479 297.941 277.004 297.941 276.56 298.078C277.03 298.683 277.324 299.406 277.41 300.168C277.41 300.938 276.83 301.768 276.08 301.718C275.709 301.658 275.362 301.495 275.08 301.248C273.54 300.178 271.99 299.078 270.45 298.018Z" fill="black"/>
</g>
</g>
<path d="M336.43 225.918C342.65 222.808 349.86 222.478 356.81 222.528C360 222.528 363.34 222.678 366.12 224.248C368.9 225.818 370.87 229.248 369.69 232.248L377.89 232.488C378.656 235.292 378.542 238.265 377.561 241.002C376.581 243.739 374.783 246.108 372.41 247.788L374.62 248.258C376.11 248.878 376.19 251.138 375.19 252.418C374.19 253.698 372.57 254.268 371.1 254.928C368.135 256.289 365.467 258.222 363.25 260.616C361.033 263.009 359.31 265.817 358.18 268.878C357.18 271.738 354.93 279.418 352.23 280.828C348.81 282.608 346.23 275.688 343.37 273.128C338.58 268.878 333.93 264.348 330.65 258.858C324.06 247.778 323.42 232.418 336.43 225.918Z" fill="#077997"/>
<g opacity="0.2">
<mask id="mask13_2_340" style="mask-type:luminance" maskUnits="userSpaceOnUse" x="355" y="232" width="24" height="21">
<path d="M378.363 232.418H355.73V252.258H378.363V232.418Z" fill="white"/>
</mask>
<g mask="url(#mask13_2_340)">
<path d="M357.72 249.988C359.53 251.288 361.9 251.458 364.13 251.598L375.29 252.258C375.588 251.812 375.771 251.299 375.823 250.766C375.875 250.232 375.795 249.693 375.59 249.198C375.388 248.771 375.03 248.438 374.59 248.268L372.38 247.798C374.753 246.116 376.552 243.745 377.533 241.007C378.513 238.268 378.627 235.294 377.86 232.488L375.45 232.418V236.128C374.45 246.228 364.71 246.288 356.45 244.198C355 245.858 355.9 248.698 357.72 249.988Z" fill="black"/>
</g>
</g>
<g opacity="0.1">
<mask id="mask14_2_340" style="mask-type:luminance" maskUnits="userSpaceOnUse" x="325" y="233" width="15" height="21">
<path d="M339.54 233.858H325.032V253.172H339.54V233.858Z" fill="white"/>
</mask>
<g mask="url(#mask14_2_340)">
<path d="M325.54 252.548C322.81 255.488 331.95 247.308 332.3 243.318C334.5 243.968 336.88 242.488 338.02 240.508C339.013 238.432 339.533 236.16 339.54 233.858C339.54 233.858 338.32 239.618 334.89 239.618H331.46C331.46 239.618 327.84 250.078 325.54 252.548Z" fill="black"/>
</g>
</g>
<path d="M356.23 232.748C356.23 233.358 357.13 233.858 358.23 233.858C359.33 233.858 360.23 233.358 360.23 232.748C360.23 232.138 359.33 231.638 358.23 231.638C357.13 231.638 356.23 232.138 356.23 232.748Z" fill="#263238"/>
<g opacity="0.1">
<mask id="mask15_2_340" style="mask-type:luminance" maskUnits="userSpaceOnUse" x="350" y="252" width="20" height="23">
<path d="M369.22 252.468H350.34V274.768H369.22V252.468Z" fill="white"/>
</mask>
<g mask="url(#mask15_2_340)">
<path d="M356.06 267.998C355.72 265.998 354.57 263.998 352.66 263.398C352.923 263.504 353.206 263.552 353.49 263.54C353.774 263.527 354.052 263.455 354.305 263.327C354.559 263.199 354.782 263.019 354.96 262.798C355.139 262.577 355.268 262.32 355.339 262.046C355.411 261.771 355.423 261.484 355.375 261.204C355.327 260.924 355.22 260.658 355.061 260.422C354.903 260.187 354.695 259.988 354.454 259.839C354.212 259.69 353.941 259.594 353.66 259.558C355.25 259.268 356.1 256.888 355.24 255.358C354.29 253.648 352.24 252.928 350.34 252.468H350.42C356.403 253.09 362.333 254.153 368.16 255.648L369.22 255.898C364.134 258.798 360.238 263.403 358.22 268.898C357.74 270.198 357.02 272.508 356.13 274.768V273.998C356.287 272 356.264 269.992 356.06 267.998Z" fill="black"/>
</g>
</g>
<path d="M373.7 232.368L377.89 232.498C378.409 234.293 378.542 236.178 378.28 238.028C377.08 237.58 376.022 236.819 375.217 235.824C374.411 234.828 373.887 233.635 373.7 232.368Z" fill="#263238"/>
<path d="M366.16 249.878C367.43 249.928 368.87 249.928 370.51 249.878H371.72C373.13 249.798 374.29 250.568 375.72 251.368C376.429 251.862 377.199 252.262 378.01 252.558C378.417 252.7 378.857 252.715 379.273 252.603C379.688 252.491 380.06 252.255 380.34 251.928C380.545 251.56 380.628 251.136 380.578 250.718C380.528 250.299 380.346 249.907 380.06 249.598C379.464 249 378.706 248.59 377.88 248.418C376.249 248 374.558 247.862 372.88 248.008C372.692 248.016 372.505 248.036 372.32 248.068C369.97 248.258 367.8 249.398 366.16 249.878Z" fill="#E8483F"/>
<path d="M366.16 249.878C367.608 250 369.063 250 370.51 249.878C368.87 249.928 367.43 249.928 366.16 249.878Z" fill="#E8483F"/>
<path d="M359.49 248.538C361.6 249.429 363.869 249.885 366.16 249.878C367.93 249.358 370.33 248.058 372.86 247.878L372.41 247.778C367.738 248.655 362.907 247.951 358.68 245.778C358.68 245.778 356.06 246.768 359.49 248.538Z" fill="#263238"/>
<path d="M355.3 294.838C355.334 294.083 355.215 293.33 354.948 292.623C354.682 291.917 354.274 291.272 353.75 290.728C353.983 294.23 353.246 297.728 351.62 300.838L351.74 297.118C350.463 299.241 348.626 300.971 346.43 302.118C346.964 301.726 347.412 301.23 347.747 300.659C348.082 300.088 348.298 299.455 348.38 298.798C347.16 300.818 345.706 302.687 344.05 304.368C342.378 306.058 340.159 307.096 337.79 307.298C341.259 304.843 344.203 301.721 346.453 298.116C348.702 294.51 350.21 290.493 350.89 286.298C351.087 284.269 351.462 282.261 352.01 280.298C352.59 278.598 354.01 275.538 354.9 278.478C356.4 283.258 355.65 289.948 355.3 294.838Z" fill="#077997"/>
<path d="M314.78 311.178L313.06 309.528C313.265 311.422 312.813 313.328 311.78 314.928C311.793 314.137 311.766 313.346 311.7 312.558C310.767 315.031 309.163 317.195 307.07 318.808C307.512 316.225 308.093 313.668 308.81 311.148C309.29 309.418 310.73 304.778 313.31 305.148C315.89 305.518 313.48 309.938 314.78 311.178Z" fill="#077997"/>
<path d="M326.06 243.628C326.228 244.789 326.191 245.97 325.95 247.118C325.922 247.256 325.864 247.385 325.78 247.498C325.58 251.208 327.02 255.108 330.1 259.118C337.29 268.478 351.1 275.308 355.31 275.818C355.511 275.893 355.682 276.031 355.799 276.211C355.916 276.391 355.971 276.603 355.958 276.817C355.944 277.031 355.862 277.236 355.724 277.4C355.586 277.563 355.398 277.679 355.19 277.728H355.08C350.08 277.138 335.92 269.868 328.57 260.288C324.88 255.478 323.33 250.718 323.98 246.148C324.092 245.35 324.01 244.537 323.74 243.778L326.06 243.628Z" fill="#263238"/>
<path d="M327.51 260.288C328.16 259.418 329.51 258.518 329.13 257.478C329.85 259.698 330.06 261.408 331.8 262.968L331.56 260.458C332.568 263.068 334.273 265.351 336.49 267.058C336.444 266.219 336.087 265.428 335.49 264.838C337.388 266.137 339.562 266.979 341.84 267.298C338.96 262.078 333.38 255.148 327.43 253.468C327.45 254.928 328.42 259.078 327.51 260.288Z" fill="#077997"/>
<path d="M343.26 271.998C343.77 270.998 344.93 269.948 344.44 268.998C345.44 271.078 345.95 272.738 347.9 273.998L347.29 271.558C348.679 273.987 350.71 275.987 353.16 277.338C352.992 276.519 352.529 275.789 351.86 275.288C353.933 276.287 356.209 276.79 358.51 276.758C354.87 272.038 348.3 266.028 342.17 265.268C342.39 266.698 343.97 270.668 343.26 271.998Z" fill="#077997"/>
<path d="M108.12 142.598C116.61 147.738 152.91 154.038 155.12 153.888C155.966 153.886 156.797 153.668 157.534 153.253C158.271 152.838 158.89 152.24 159.33 151.518C159.67 150.906 159.887 150.234 159.968 149.538C160.048 148.843 159.991 148.139 159.799 147.466C159.608 146.792 159.285 146.163 158.851 145.615C158.416 145.066 157.877 144.609 157.266 144.268C157.02 144.132 156.764 144.015 156.5 143.918C147.13 140.338 130.56 133.438 123.5 129.498C117.96 126.418 126.16 86.838 115.75 83.428C98.8498 77.908 98.0598 136.518 108.12 142.598Z" fill="#077997"/>
<g opacity="0.1">
<mask id="mask16_2_340" style="mask-type:luminance" maskUnits="userSpaceOnUse" x="101" y="83" width="60" height="71">
<path d="M160.004 83.062H101.576V153.891H160.004V83.062Z" fill="white"/>
</mask>
<g mask="url(#mask16_2_340)">
<path d="M108.12 142.598C116.61 147.738 152.91 154.038 155.12 153.888C155.966 153.886 156.797 153.668 157.534 153.253C158.271 152.838 158.89 152.24 159.33 151.518C159.67 150.906 159.887 150.234 159.968 149.538C160.048 148.843 159.991 148.139 159.799 147.466C159.608 146.792 159.285 146.163 158.851 145.615C158.416 145.066 157.877 144.609 157.266 144.268C157.02 144.132 156.764 144.015 156.5 143.918C147.13 140.338 130.56 133.438 123.5 129.498C117.96 126.418 126.16 86.838 115.75 83.428C98.8498 77.908 98.0598 136.518 108.12 142.598Z" fill="black"/>
</g>
</g>
<path d="M153.82 154.168L163.11 158.978C163.11 158.978 168.81 150.628 168.99 149.648C168.99 149.648 164.58 146.028 159.79 145.998L156.69 146.238C156.271 146.269 155.862 146.386 155.491 146.583C155.119 146.779 154.792 147.05 154.53 147.378L152.83 149.498C152.543 149.854 152.339 150.269 152.233 150.714C152.127 151.158 152.121 151.621 152.215 152.068C152.31 152.515 152.503 152.936 152.781 153.299C153.058 153.662 153.413 153.959 153.82 154.168Z" fill="#FFB373"/>
<path d="M161.18 158.078L168.6 149.488L172.96 152.078C173.314 152.292 173.568 152.638 173.667 153.04C173.766 153.441 173.701 153.866 173.487 154.22C173.452 154.279 173.413 154.335 173.37 154.388L169.51 159.198C169.104 159.694 168.55 160.047 167.929 160.205C167.309 160.363 166.653 160.319 166.06 160.078L161.18 158.078Z" fill="#FFB373"/>
<path d="M113.61 83.078C117.91 85.078 119.77 114.418 117.08 146.188C116.55 152.448 81.3699 153.188 75.0299 147.488L62.3998 96.488C62.0149 94.9327 61.9401 93.3169 62.1796 91.7327C62.4192 90.1486 62.9684 88.6271 63.7959 87.2552C64.6235 85.8833 65.7132 84.6878 67.0028 83.7371C68.2924 82.7863 69.7566 82.0989 71.3118 81.714C71.6912 81.6207 72.0739 81.5453 72.4599 81.488C75.3198 81.078 89.3999 71.748 113.61 83.078Z" fill="#077997"/>
<path d="M117.06 146.178C118.06 151.828 119.17 163.758 121.55 168.938L121.76 169.408C122.817 171.783 123.147 174.418 122.709 176.981C122.272 179.544 121.085 181.92 119.299 183.809C117.513 185.699 115.208 187.017 112.674 187.599C110.14 188.181 107.491 187.999 105.06 187.078L97.9598 184.378C97.9598 184.378 94.8398 184.548 70.7098 177.378C70.2098 177.228 68.7098 175.128 68.8698 169.088C69.0275 164.361 70.0441 159.701 71.8698 155.338L75.0698 147.488C89.0651 148.842 103.176 148.401 117.06 146.178Z" fill="#263238"/>
<path d="M150.29 316.138L150.06 345.508C149.13 345.988 139.01 349.708 138.86 346.888C138.4 338.288 137.49 320.218 137.49 320.218L150.29 316.138Z" fill="#FFB373"/>
<path d="M152.75 338.188C152.69 338.178 152.635 338.151 152.591 338.11C152.546 338.069 152.515 338.017 152.5 337.958C152.488 337.899 152.494 337.838 152.517 337.783C152.541 337.728 152.58 337.681 152.63 337.648C152.8 337.528 156.9 334.738 158.99 335.138C159.189 335.164 159.38 335.231 159.552 335.334C159.724 335.437 159.873 335.575 159.99 335.738C160.141 335.91 160.234 336.126 160.255 336.354C160.277 336.582 160.226 336.81 160.11 337.008C159.7 337.758 158.19 338.098 156.6 338.208C155.319 338.322 154.03 338.315 152.75 338.188ZM158.35 335.668C156.686 336.029 155.107 336.708 153.7 337.668C156 337.808 159.12 337.538 159.63 336.668C159.69 336.558 159.75 336.378 159.51 336.028C159.443 335.93 159.355 335.847 159.254 335.785C159.152 335.723 159.038 335.683 158.92 335.668C158.727 335.643 158.533 335.643 158.34 335.668H158.35Z" fill="#077997"/>
<path d="M152.59 338.078C152.549 338.045 152.519 338.001 152.503 337.951C152.487 337.902 152.486 337.848 152.5 337.798C152.5 337.658 152.57 334.328 154.04 332.908C154.255 332.715 154.506 332.566 154.779 332.472C155.052 332.377 155.341 332.339 155.63 332.358C155.88 332.328 156.133 332.386 156.345 332.523C156.557 332.66 156.715 332.867 156.79 333.108C157.14 334.468 154.4 337.358 152.97 338.108H152.85L152.59 338.078ZM154.45 333.368C153.612 334.505 153.15 335.876 153.13 337.288C154.57 336.288 156.48 333.968 156.21 333.188C156.21 333.118 156.14 332.918 155.62 332.898L155.44 332.958C155.072 332.967 154.72 333.109 154.45 333.358V333.368Z" fill="#077997"/>
<path d="M150.68 336.078L138.68 336.398C138.433 336.396 138.194 336.487 138.009 336.651C137.824 336.815 137.707 337.042 137.68 337.288L135.6 347.238C135.46 348.238 137.4 349.348 137.51 349.338C144.83 349.858 160.51 349.758 165.72 349.518C170.93 349.278 171.33 344.118 169.19 343.758C159.59 342.118 155.87 339.418 152.72 336.828C152.158 336.332 151.43 336.064 150.68 336.078Z" fill="#263238"/>
<g opacity="0.2">
<mask id="mask17_2_340" style="mask-type:luminance" maskUnits="userSpaceOnUse" x="137" y="316" width="14" height="14">
<path d="M150.28 316.138H137.49V329.148H150.28V316.138Z" fill="white"/>
</mask>
<g mask="url(#mask17_2_340)">
<path d="M137.95 329.148L137.49 320.218L150.28 316.138L150.05 328.158L137.95 329.148Z" fill="black"/>
</g>
</g>
<path d="M48.42 312.238L32.12 336.678C31.12 336.568 20.58 334.128 22 331.678C26.33 324.228 35.48 308.618 35.48 308.618L48.42 312.238Z" fill="#FFB373"/>
<path d="M38.3802 332.078C38.3362 332.037 38.3052 331.983 38.291 331.925C38.2767 331.866 38.2799 331.805 38.3002 331.748C38.3223 331.692 38.3609 331.644 38.4108 331.61C38.4608 331.576 38.5198 331.558 38.5802 331.558C38.7902 331.558 43.7402 331.468 45.2702 332.958C45.4177 333.081 45.5383 333.234 45.6243 333.406C45.7103 333.578 45.76 333.766 45.7702 333.958C45.8005 334.185 45.7589 334.417 45.6513 334.619C45.5437 334.822 45.3755 334.986 45.1702 335.088C44.4202 335.488 42.9702 334.938 41.5902 334.168C40.4568 333.574 39.3821 332.874 38.3802 332.078ZM44.4502 333.078C42.8584 332.454 41.1596 332.148 39.4502 332.178C41.3002 333.558 44.0502 335.048 44.9402 334.628C45.0602 334.558 45.2002 334.438 45.2002 334.018C45.1946 333.898 45.1652 333.781 45.1137 333.673C45.0622 333.564 44.9896 333.468 44.9002 333.388C44.7513 333.267 44.5943 333.157 44.4302 333.058L44.4502 333.078Z" fill="#077997"/>
<path d="M38.3199 331.838C38.3026 331.79 38.3 331.737 38.3125 331.687C38.3249 331.638 38.3518 331.593 38.3899 331.558C38.4799 331.438 40.3899 328.688 42.3899 328.308C42.9674 328.226 43.5537 328.378 44.0199 328.728C44.2454 328.84 44.4249 329.027 44.5271 329.257C44.6294 329.487 44.648 329.746 44.5799 329.988C44.1199 331.318 40.2499 332.238 38.5799 332.108H38.4599L38.3199 331.838ZM42.4499 328.928C41.1271 329.418 39.9907 330.31 39.1999 331.478C40.9799 331.398 43.8199 330.538 44.0199 329.738C44.0199 329.658 44.1099 329.468 43.6899 329.168H43.5099C43.2004 328.955 42.8209 328.869 42.4499 328.928Z" fill="#077997"/>
<path d="M37.82 329.078L27.66 322.828C27.4543 322.689 27.2042 322.631 26.9583 322.666C26.7125 322.701 26.4885 322.827 26.33 323.018L19.13 330.198C18.46 330.968 19.48 332.948 19.57 333.008C25.41 337.448 38.57 346.008 43.06 348.628C47.55 351.248 50.72 347.188 49.13 345.708C42 339.078 40.37 334.778 39.13 330.888C38.9353 330.142 38.4678 329.496 37.82 329.078Z" fill="#263238"/>
<g opacity="0.2">
<mask id="mask18_2_340" style="mask-type:luminance" maskUnits="userSpaceOnUse" x="30" y="308" width="19" height="15">
<path d="M48.42 308.628H30.96V322.158H48.42V308.628Z" fill="white"/>
</mask>
<g mask="url(#mask18_2_340)">
<path d="M30.96 316.359L35.48 308.629L48.42 312.239L41.63 322.159L30.96 316.359Z" fill="black"/>
</g>
</g>
<path d="M93.5198 189.598C96.6298 201.858 120.74 232.768 128.73 253.498C134.88 269.498 134.16 302.428 133.98 320.858C133.955 321.704 134.122 322.545 134.469 323.317C134.815 324.09 135.332 324.774 135.98 325.318C135.98 325.318 146.56 324.918 149.82 324.378C160.23 322.658 157.34 269.728 156.52 256.808C155.13 234.868 141.37 198.998 120.47 165.808C116.97 160.248 110.83 163.688 102.68 165.938C101.2 166.358 90.5098 177.698 93.5198 189.598Z" fill="#263238"/>
<g opacity="0.2">
<mask id="mask19_2_340" style="mask-type:luminance" maskUnits="userSpaceOnUse" x="97" y="174" width="14" height="47">
<path d="M110.903 174.381H97.98V220.078H110.903V174.381Z" fill="white"/>
</mask>
<g mask="url(#mask19_2_340)">
<path d="M100.06 174.508C97.96 172.288 97.98 199.978 97.98 199.978L109.59 220.078C109.59 220.078 116.12 191.528 100.06 174.508Z" fill="black"/>
</g>
</g>
<path d="M70.3602 175.298C47.9302 295.368 26.8902 304.148 31.4202 312.078C31.4202 312.078 40.9602 316.778 43.5102 318.888C49.5102 323.888 77.8102 277.888 81.6202 265.488C90.1202 237.808 101.01 207.078 102.69 176.008C103.05 169.448 99.0402 163.148 91.0002 160.558C89.5302 160.078 72.6202 163.238 70.3602 175.298Z" fill="#263238"/>
<g opacity="0.1">
<mask id="mask20_2_340" style="mask-type:luminance" maskUnits="userSpaceOnUse" x="72" y="94" width="10" height="37">
<path d="M81.7491 94.2209H72.1221V130.859H81.7491V94.2209Z" fill="white"/>
</mask>
<g mask="url(#mask20_2_340)">
<path d="M81.7001 130.628C81.0901 131.628 77.4101 129.118 76.7001 128.168C74.5401 125.078 73.8101 119.488 73.1501 115.848C72.3532 111.465 72.018 107.011 72.1501 102.558C72.2201 100.698 71.9201 91.618 74.8001 94.948C77.2001 97.638 82.3001 129.638 81.7001 130.628Z" fill="black"/>
</g>
</g>
<path d="M105.52 161.928C104.4 162.288 103.13 161.658 102.13 160.248C101.084 158.764 100.415 157.048 100.18 155.248L97.3401 159.658C96.8101 160.478 96.1301 161.318 95.1001 161.288C94.8588 161.282 94.6216 161.224 94.4044 161.119C94.1871 161.013 93.9948 160.863 93.8401 160.678C93.5774 160.336 93.3855 159.945 93.2756 159.527C93.1657 159.11 93.14 158.675 93.2001 158.248C93.4323 156.652 94.2883 155.213 95.5801 154.248C96.8428 153.247 98.4474 152.78 100.05 152.948L99.8901 152.538L100.79 152.198L100.88 152.428L101.06 152.128V152.548C101.784 152.35 102.548 152.347 103.274 152.541C103.999 152.734 104.66 153.116 105.19 153.648C106.294 154.859 106.975 156.396 107.13 158.028C107.35 159.508 107.07 161.428 105.55 161.938L105.52 161.928ZM101.06 153.568V153.768C101.05 155.891 101.704 157.965 102.93 159.698C103.5 160.508 104.37 161.288 105.25 161.008C106.25 160.668 106.33 159.008 106.19 158.148C106.066 156.723 105.479 155.378 104.52 154.318C104.158 153.943 103.714 153.658 103.223 153.484C102.732 153.311 102.207 153.254 101.69 153.318L101.07 153.528L101.06 153.568ZM97.8801 154.088C97.2638 154.283 96.6879 154.588 96.1801 154.988C95.093 155.806 94.3739 157.021 94.1801 158.368C94.1009 158.961 94.2512 159.562 94.6001 160.048C94.6667 160.133 94.7516 160.203 94.8484 160.251C94.9453 160.3 95.0518 160.326 95.1601 160.328C95.7101 160.328 96.1601 159.738 96.5601 159.138L99.9001 153.968L99.7201 154.028L99.6601 153.858C99.0548 153.814 98.4468 153.889 97.8701 154.078L97.8801 154.088Z" fill="#077997"/>
<path d="M93.38 176.078L92.52 175.638C95.9818 168.89 97.6584 161.368 97.39 153.788H98.39C98.6468 161.524 96.9222 169.196 93.38 176.078Z" fill="#077997"/>
<path d="M112.32 174.308L111.38 174.508C109.677 166.446 105.045 159.302 98.3799 154.458L98.9499 153.678C105.805 158.664 110.568 166.014 112.32 174.308Z" fill="#077997"/>
<path d="M86.64 68.3779L85.9 67.7779C83.72 65.0179 82.9 61.8779 81.95 56.9879C81.7 55.7379 81.46 54.3679 81.18 52.8579C80.7852 50.8691 80.8537 48.8161 81.38 46.8579C81.6566 45.8144 82.056 44.8073 82.57 43.8579C83.74 48.2079 83.91 52.7279 84.31 57.1879C84.5298 61.0125 85.315 64.7834 86.64 68.3779Z" fill="#263238"/>
<path d="M105.82 88.2979C94.8197 103.598 81.1097 81.5279 72.8197 81.6879C71.5154 81.9862 70.2643 82.4819 69.1097 83.1579C68.7617 83.1093 68.4111 83.0826 68.0597 83.0779C66.6295 83.0482 65.2357 83.5306 64.1297 84.4379C63.3197 83.5379 66.8697 78.5479 67.0697 77.3479C68.2697 70.0279 75.9397 64.4179 83.2797 65.4879C83.2797 65.4879 95.0397 67.8579 98.6097 71.6479C100.91 74.0779 104.42 77.7479 105.87 81.6479C106.322 82.6995 106.551 83.8335 106.543 84.9782C106.534 86.1228 106.288 87.2533 105.82 88.2979Z" fill="#263238"/>
<path d="M87.6098 63.1279C88.1598 68.1279 88.5398 75.1279 85.8298 79.1279C85.3563 79.7943 85.0912 80.5861 85.0681 81.4032C85.0449 82.2203 85.2648 83.0259 85.6998 83.7179C86.9098 85.5279 89.2798 88.0379 93.9698 90.9579C94.8224 91.4939 95.7983 91.8023 96.8041 91.8536C97.8099 91.9049 98.8121 91.6975 99.7149 91.2511C100.618 90.8047 101.391 90.1343 101.961 89.3039C102.531 88.4735 102.878 87.5109 102.97 86.5079C103.046 85.4309 102.789 84.3565 102.235 83.4301C101.681 82.5036 100.855 81.7698 99.8698 81.3279C95.8198 79.4279 96.2598 76.9979 97.5098 73.2179L87.6098 63.1279Z" fill="#FFB373"/>
<g opacity="0.2">
<mask id="mask21_2_340" style="mask-type:luminance" maskUnits="userSpaceOnUse" x="90" y="67" width="8" height="10">
<path d="M97.3997 67.208H90.4297V76.278H97.3997V67.208Z" fill="white"/>
</mask>
<g mask="url(#mask21_2_340)">
<path d="M91.6197 67.208L97.3997 73.208C97.0497 74.2063 96.7887 75.2337 96.6197 76.278C94.2797 75.728 90.7297 73.378 90.4297 70.708C90.5328 69.4613 90.9415 68.2592 91.6197 67.208Z" fill="black"/>
</g>
</g>
<path d="M108.86 63.0779C108.609 65.9717 107.289 68.6681 105.157 70.6409C103.025 72.6138 100.234 73.7215 97.33 73.7479H97.26C95.0049 73.7643 92.7859 73.1815 90.83 72.0589C90.1003 71.6575 89.4076 71.1924 88.76 70.6689C88.49 70.4589 88.23 70.2389 87.99 70.0289C87.2268 69.3617 86.5272 68.6252 85.9 67.8289C83.72 65.0689 82.9 61.9289 81.95 57.0389C81.7 55.7889 81.46 54.4189 81.18 52.9089C80.7852 50.9201 80.8537 48.8671 81.38 46.9089C81.6566 45.8654 82.056 44.8583 82.57 43.9089C82.7939 43.4911 83.0479 43.09 83.33 42.7089C84.8346 40.5391 86.9777 38.8917 89.4615 37.9956C91.9453 37.0996 94.6466 36.9994 97.19 37.7089C101.56 38.8689 104.57 42.4189 106.46 46.7689C106.66 47.1989 106.83 47.6489 106.99 48.0889C108.708 52.8872 109.347 58.0046 108.86 63.0779Z" fill="#FFB373"/>
<path d="M96.3599 53.438C96.4699 54.208 96.9499 54.788 97.4399 54.728C97.9299 54.668 98.2699 53.978 98.1799 53.208C98.0899 52.438 97.5899 51.848 97.0999 51.908C96.6099 51.968 96.3099 52.688 96.3599 53.438Z" fill="#263238"/>
<path d="M104.96 52.3589C105.07 53.1389 105.55 53.7089 106.04 53.6489C106.53 53.5889 106.87 52.8989 106.78 52.1289C106.69 51.3589 106.19 50.7689 105.7 50.8489C105.21 50.9289 104.87 51.5789 104.96 52.3589Z" fill="#263238"/>
<path d="M102.48 54.078C103.38 55.7583 104.504 57.309 105.82 58.688C105.467 59.0173 105.045 59.265 104.586 59.4136C104.126 59.5622 103.639 59.6081 103.16 59.548L102.48 54.078Z" fill="#E8483F"/>
<path d="M99.3898 63.138C99.7674 63.148 100.145 63.128 100.52 63.078C100.579 63.0704 100.633 63.0401 100.67 62.9935C100.708 62.9468 100.725 62.8875 100.72 62.828C100.708 62.7696 100.675 62.7177 100.627 62.6826C100.578 62.6475 100.519 62.6315 100.46 62.638C99.5123 62.7787 98.5449 62.6905 97.6385 62.3808C96.7321 62.0712 95.913 61.549 95.2498 60.858C95.2312 60.837 95.2085 60.82 95.1832 60.808C95.1579 60.796 95.1305 60.7891 95.1025 60.7879C95.0745 60.7867 95.0466 60.7911 95.0203 60.8009C94.9941 60.8107 94.9701 60.8257 94.9498 60.845L94.9368 60.858C94.8946 60.8981 94.8699 60.9534 94.8683 61.0116C94.8666 61.0699 94.888 61.1264 94.9278 61.169L94.9368 61.178C95.5093 61.7862 96.1982 62.2732 96.9627 62.6099C97.7272 62.9466 98.5515 63.1262 99.3868 63.138" fill="#263238"/>
<path d="M92.6897 52.078C92.7864 52.0865 92.8831 52.0613 92.9634 52.0066C93.0436 51.9519 93.1024 51.8711 93.1297 51.778C93.4609 51.1171 93.9249 50.5318 94.4927 50.0586C95.0606 49.5854 95.72 49.2345 96.4297 49.028C96.5485 48.9952 96.6496 48.9171 96.7113 48.8105C96.773 48.7038 96.7904 48.5773 96.7597 48.458C96.7289 48.3449 96.6553 48.2483 96.5545 48.1886C96.4537 48.1289 96.3337 48.1107 96.2197 48.138C95.3644 48.3766 94.571 48.7978 93.8942 49.3727C93.2175 49.9476 92.6735 50.6625 92.2997 51.468C92.2607 51.5808 92.267 51.7044 92.3174 51.8126C92.3678 51.9208 92.4583 52.0052 92.5697 52.048C92.6062 52.0687 92.6477 52.0791 92.6897 52.078Z" fill="#263238"/>
<path d="M107.06 47.9779C107.161 47.9816 107.261 47.9517 107.344 47.8929C107.426 47.8341 107.487 47.7497 107.517 47.6528C107.546 47.5559 107.543 47.4519 107.507 47.357C107.472 47.2621 107.406 47.1816 107.32 47.1279C106.725 46.7112 106.036 46.4506 105.314 46.3702C104.592 46.2899 103.862 46.3922 103.19 46.6679C103.084 46.7159 103.001 46.8032 102.958 46.9114C102.915 47.0197 102.916 47.1403 102.96 47.2479C102.982 47.3001 103.013 47.3476 103.053 47.3876C103.093 47.4275 103.141 47.4593 103.193 47.4809C103.245 47.5025 103.301 47.5137 103.357 47.5137C103.414 47.5137 103.47 47.5026 103.522 47.4809L103.55 47.4679C104.082 47.2703 104.653 47.2043 105.216 47.2757C105.778 47.3472 106.315 47.5538 106.78 47.8779C106.858 47.9451 106.958 47.9808 107.06 47.9779Z" fill="#263238"/>
<path d="M86.64 59.5979C86.23 60.1279 84.95 57.2979 84.29 57.1679C83.5149 57.002 82.722 56.9348 81.93 56.9679C82.86 61.8579 83.7 64.9679 85.88 67.7579C82.24 64.6779 79.03 60.8979 77.57 56.3279C76.8547 53.7608 76.8362 51.0496 77.5164 48.4729C78.1965 45.8963 79.5509 43.5475 81.44 41.6679C81.74 41.3979 82.22 41.5179 82.59 41.6679C82.96 41.8179 84.89 42.2379 85.69 42.3879C86.2829 42.5314 86.8337 42.8126 87.2976 43.2087C87.7615 43.6049 88.1255 44.1048 88.36 44.6679C85.06 50.8379 87.89 57.9579 86.64 59.5979Z" fill="#263238"/>
<path d="M79.5099 60.4979C80.3003 62.1208 81.6977 63.3673 83.3999 63.9679C85.6599 64.7079 86.8999 62.6779 86.3999 60.4279C85.8999 58.4279 84.1299 55.5979 81.8199 55.7879C81.0074 55.8855 80.2668 56.3015 79.7606 56.9446C79.2545 57.5876 79.024 58.4052 79.1199 59.2179C79.1596 59.667 79.2924 60.103 79.5099 60.4979Z" fill="#FFB373"/>
<path d="M97.4998 45.2879L92.7698 43.8179C96.3498 43.9979 100.05 44.2079 103.25 45.8179C106.45 47.4279 108.99 50.8979 108.41 54.4279C109.96 51.1379 111.54 47.6779 111.41 44.0379C111.284 42.0805 110.731 40.1744 109.789 38.4537C108.847 36.733 107.54 35.2394 105.96 34.0779C102.755 31.7697 98.909 30.5214 94.9598 30.5079C91.5232 30.2661 88.111 31.2398 85.3198 33.2589C82.7698 35.2589 80.1698 40.6589 83.0398 43.459C85.9098 46.259 93.7798 45.7679 97.4998 45.2879Z" fill="#263238"/>
<path d="M323.77 243.768C323.358 242.61 322.565 241.626 321.52 240.978C321.24 240.858 321 240.748 320.82 240.648L310.95 234.698L309.06 233.568C271.83 211.458 182.74 158.748 170.6 153.358C161.6 149.358 148.42 150.168 138.94 151.518C137.363 151.724 135.884 152.396 134.69 153.446C133.497 154.497 132.644 155.88 132.24 157.418C131.811 158.905 131.832 160.486 132.3 161.961C132.768 163.436 133.662 164.74 134.87 165.708L135.07 165.868C135.169 165.946 135.252 166.043 135.314 166.153C135.375 166.263 135.415 166.384 135.43 166.51C135.444 166.635 135.434 166.762 135.4 166.884C135.366 167.005 135.308 167.119 135.23 167.218C135.152 167.317 135.055 167.4 134.945 167.462C134.835 167.523 134.713 167.563 134.588 167.578C134.463 167.592 134.336 167.582 134.214 167.548C134.093 167.514 133.979 167.456 133.88 167.378L133.66 167.198C132.162 165.993 131.053 164.373 130.471 162.541C129.89 160.709 129.861 158.746 130.39 156.898C130.898 155.003 131.955 153.3 133.428 152.005C134.902 150.709 136.725 149.879 138.67 149.618C148.4 148.228 161.97 147.448 171.37 151.618C183.62 157.028 272.79 209.808 310.05 231.938L321.79 238.938C321.953 239.031 322.124 239.112 322.3 239.178L322.41 239.228C323.354 239.558 324.193 240.135 324.837 240.901C325.481 241.666 325.907 242.591 326.07 243.578L323.77 243.768Z" fill="#263238"/>
<path d="M322.41 239.268L322.3 239.218C322.124 239.152 321.953 239.071 321.79 238.978L310.05 231.978C315.34 235.078 319.59 237.588 322.41 239.268Z" fill="#263238"/>
<path d="M120.41 149.578L133.68 154.748C133.68 154.748 138.46 145.848 138.54 144.858C138.54 144.858 133.77 141.718 129 142.188L124.63 142.998L120.41 149.578Z" fill="#FFB373"/>
<path d="M131.66 154.078L138.13 144.758L142.74 146.898C142.925 146.983 143.091 147.104 143.229 147.254C143.367 147.403 143.474 147.579 143.544 147.77C143.615 147.961 143.646 148.164 143.638 148.367C143.63 148.571 143.582 148.77 143.496 148.955C143.465 149.022 143.43 149.086 143.39 149.148L140.06 154.348C139.707 154.89 139.189 155.304 138.581 155.528C137.974 155.751 137.31 155.772 136.69 155.588L131.66 154.078Z" fill="#FFB373"/>
<path d="M68.1398 142.868C77.1398 147.088 118.95 150.508 121.14 150.128C121.98 150.032 122.782 149.725 123.471 149.236C124.16 148.746 124.713 148.09 125.08 147.328C125.381 146.618 125.526 145.852 125.502 145.081C125.479 144.31 125.289 143.553 124.944 142.863C124.6 142.173 124.11 141.566 123.509 141.083C122.907 140.6 122.208 140.254 121.46 140.068C111.77 137.498 87.2898 132.468 79.8198 129.308C73.9798 126.828 80.1698 85.518 69.4598 83.238C52.0598 79.528 57.5198 137.888 68.1398 142.868Z" fill="#077997"/>
<g opacity="0.1">
<mask id="mask22_2_340" style="mask-type:luminance" maskUnits="userSpaceOnUse" x="58" y="83" width="68" height="68">
<path d="M125.507 83.069H58.2358V150.157H125.507V83.069Z" fill="white"/>
</mask>
<g mask="url(#mask22_2_340)">
<path d="M68.1398 142.868C77.1398 147.088 118.95 150.508 121.14 150.128C121.98 150.032 122.782 149.725 123.471 149.236C124.16 148.746 124.713 148.09 125.08 147.328C125.381 146.618 125.526 145.852 125.502 145.081C125.479 144.31 125.289 143.553 124.944 142.863C124.6 142.173 124.11 141.566 123.509 141.083C122.907 140.6 122.208 140.254 121.46 140.068C111.77 137.498 87.2898 132.468 79.8198 129.308C73.9798 126.828 80.1698 85.518 69.4598 83.238C52.0598 79.528 57.5198 137.888 68.1398 142.868Z" fill="#E0E0E0"/>
</g>
</g>
</g>
</g>
</svg>
